<svg xmlns="http://www.w3.org/2000/svg" viewBox="0 0 687.14 975.68"><defs><style>.cls-1{fill:#7ebfb3;}.cls-2{fill:#d9d15f;}</style></defs><g id="leaf1"><path class="cls-1" d="M1781.26,706.76c-53.37,10.45-80,15.67-101.62,37.1-19.34,19.23-34.74,51.66-31.32,78.39q-5.4-14.82-12.37-30a424.3,424.3,0,0,0-56.43-89.84,76.14,76.14,0,0,0,19.48,6c48.24,7.79,91-35.63,108.06-72.59,1.18-2.55,25.68-57.65,1.62-101.61-10-18.26-21.55-22.14-33.88-46.78A143,143,0,0,1,1660.29,431c-4.75,12.59-13.59,30.88-30.65,46.77-14.45,13.47-27.43,18.35-35.48,22.59-43.84,23.05-79.59,99.61-59.54,154.08-11.15-10.45-22-19.71-32.26-27.84,21.6-27.86,21-60.3,20.83-64.95-2-57.42-55.52-104.81-103.23-112.91-36.66-6.23-94.74,6.52-101.62,8.07a170.1,170.1,0,0,1-37.09,4.83,167,167,0,0,1-48.39-6.45c12.23,7.52,28.28,20.14,37.1,40.33,7.2,16.5,6.26,30.47,6.45,38.71.94,42.11,34.8,94.19,80.64,116.13,39.12,18.72,101.37,22.39,138.72-16.13,1.27-1.31,2.46-2.64,3.61-4a534.22,534.22,0,0,1,55.36,62,89.27,89.27,0,0,0-29.94-12.85c-42.48-9.36-81.79,16.79-100,41.94-18.89,26.08-10.92,45.3-33.87,85.48a203.48,203.48,0,0,1-38.71,48.39,147.81,147.81,0,0,1,46.77-4.84c28,1.67,43.17,10.93,56.45,14.52,50.8,13.74,142.32-36.74,141.94-100,0-2.13-.14-4.27-.35-6.42a438,438,0,0,1,29.85,71.17,44.7,44.7,0,0,0-6.92-3.46c-35.47-14-77.86,24.41-95.16,46.78-11.07,14.31-18.67,32.65-33.87,69.35-7.91,19.1-13.78,35.3-17.74,46.78,17.7,3.2,47.07,6,80.64-3.23,7.38-2,66.61-18.38,92.06-56.82a454,454,0,0,1-15.14,151h16.91a384.66,384.66,0,0,0,19.76-80.53c8.94,11.34,22.81,21.77,41.26,28.27a99.78,99.78,0,0,0,32.26,3.22,101.73,101.73,0,0,0,48.38-16.12,78,78,0,0,1-11.29-11.3c-9.33-11.48-12.36-22-14.51-27.42-7.71-19.26-30.21-37.63-53.23-40.32-12.71-1.48-28.27,1.5-39.55,8.53a368.65,368.65,0,0,0-16.24-103.65c.31.52.61,1.06,1,1.57,12.77,19.45,37.86,23,46.77,24.19,40.46,5.65,82.34-18.42,101.62-50,5.52-9,4.33-10.73,22.58-71,6-19.83,11.11-36.06,14.52-46.77A509.75,509.75,0,0,0,1781.26,706.76Z" transform="translate(-1232.86 -104.32)"/></g><g id="weed4"><path class="cls-2" d="M1920,104.32c-64.3,4.42-109.28,25.93-131.26,38.33,29.65-12.4,73.43-25.81,129.75-27.27l1.51,0Z" transform="translate(-1232.86 -104.32)"/></g><g id="weed2"><path class="cls-2" d="M1920,468.58q-10.05,3.62-20.19,7.94c-77.41-.17-131,25.22-155.72,39.13,29.64-12.4,73.43-25.81,129.75-27.27l1,0c-67.84,35.46-103.34,82.25-118.7,105.81,20.58-24.68,53.25-56.77,102.55-84a400.35,400.35,0,0,1,45.14-21.36q8.16.4,16.14,1.13Z" transform="translate(-1232.86 -104.32)"/></g></svg>