<svg xmlns="http://www.w3.org/2000/svg" viewBox="0 0 1247.12 205.37"><defs><style>.cls-1{fill:#f28972;}.cls-2{fill:#d9d15f;}</style></defs><g id="leaf5"><path class="cls-1" d="M1705.15,0H1347.56a228.21,228.21,0,0,0,2,87.75c13.88,61.92,50.28,101.28,67.25,117.48a145.94,145.94,0,0,0,53.47-38.86C1510,120.17,1506.16,63.81,1505,51.14c4.56,15.4,21.24,64.74,71.57,101,48.48,34.95,98.39,36.28,114.76,36a8.51,8.51,0,0,1,16,5.65l62,6.92a465.63,465.63,0,0,0-14.26-78.53C1746.44,90.39,1733.44,42.67,1705.15,0Z" transform="translate(-522.25 0.13)"/></g><g id="weed3"><path class="cls-2" d="M618.25,0q3.62,10.05,7.94,20.19C626,97.6,651.41,151.24,665.32,175.91c-12.4-29.64-25.81-73.43-27.27-129.75,0-.34,0-.69,0-1,35.46,67.84,82.25,103.34,105.81,118.7-24.68-20.58-56.77-53.25-84.05-102.55a400.35,400.35,0,0,1-21.36-45.14Q638.84,8,639.56,0Z" transform="translate(-522.25 0.13)"/><path class="cls-2" d="M595.94-.13a355.43,355.43,0,0,1-73.69,85c19.29-12.58,54.15-38.68,85.62-85Z" transform="translate(-522.25 0.13)"/><path class="cls-2" d="M625.77-.13a353.15,353.15,0,0,1-25,97c10.07-17.84,26.12-50.86,34.18-97Z" transform="translate(-522.25 0.13)"/></g><g id="leaf6"><path class="cls-2" d="M1259,26.1a80.24,80.24,0,0,1-18.94-7.17c.14-10-1.57-12.82-3.27-13.38-2.58-.86-5.47,3.66-9.79,2.29-1.83-.59-2.48-1.61-4.57-2.61a15,15,0,0,0-9.14-1c-1.41-2.32-9.53-.61-10.77-1.3-6-3.37-9-3.49-17,4.26.92-1.6,1.79-3.64,1-4.9-1.72-2.65-9.85-.11-14.69,1.31-22.47,6.59-37,10.86-45.37,6.22-2.52-1.4-5.36-4.12-7.37-9.84H950a26.13,26.13,0,0,1-2.19,8.14c-8.12-1-12.83-3.89-15.67-6.53-.56-.52-1.07-1.06-1.56-1.61H873.8c.22.39.46.77.72,1.15-.34,0-6.85.24-9.46,4.9s-.44,12.05,6.21,15.67c-4,1-4.72,2.64-4.9,3.26-.88,3.05,3.82,7.82,12.08,11.75-.44.59-4.86,6.74-2.6,13.06s10.74,10.67,19.59,8.15c-2.69,3.39-2.16,5.08-2,5.55,1.11,2.61,7.06,3.31,15,1.3-.91,4,2,7.62,5.22,7.83,2.79.18,5.7-2.14,6.2-5.55,10.24.26,16.61-2.55,20.56-5.24,7-4.73,8.38-10.42,15.34-13.06,5.85-2.23,11.84-.86,16,.64a82.22,82.22,0,0,1,7.2,32c.38,28.36-15.19,49.42-9.11,54.19,1.58,1.24,4.87,1.56,12.4-2.62-3,8.05-1.66,15.83,2.94,19.26a10.41,10.41,0,0,0,5.55,2c.53,5.74,4.86,10.08,9.8,10.44,5.7.42,9.32-4.68,9.47-4.9a26.83,26.83,0,0,0,6.86,12.4c1.77,1.79,10.28,10.42,18.93,7.17,7.63-2.86,9.35-12.69,9.46-13.38,10.88,7.7,22,6.48,25.13,1.62s-2-13.51-2.29-14c3.06.67,4.54-.11,5.23-.65,3.27-2.62,1.26-10.31-1.32-14.69-3.9-6.65-10.94-8.83-13.38-9.46a18.11,18.11,0,0,0,2.6-8.81c.13-7.44-5-10.17-6.21-19.91-.46-3.72-.84-6.81,1-9.14,4.38-5.64,17.53-1.75,18.93-1.32,3.13,1,13.19,4.52,27.43,24.14,13.14,18.12,15.14,29.65,25.8,32.31a20.61,20.61,0,0,0,12.07-1c4.23,10.4,14.12,15.2,21.23,12.72,6.07-2.12,8.43-9,8.81-10.12,10,8.07,21.44,6.87,25.13,1.62,3.47-4.95-.31-13-.66-13.71,5.5,3.56,12.4,2.36,15.67-2a11.27,11.27,0,0,0,.64-11.75c12.54,1.87,22.45-5.93,23.17-14s-7.78-14.1-8.17-14.36q25.51-4.47,25.79-10.13.13-3.09-7.19-6.53c7.69-2,12.17-9.27,10.77-15.67-1.06-4.82-5.34-8.71-10.78-9.79a28.76,28.76,0,0,0,13.71-4.9c6.1-4.26,12.29-12.38,10.11-16.65C1267.36,27.44,1264.47,27.39,1259,26.1Z" transform="translate(-522.25 0.13)"/></g></svg>